<svg data-v-423bf9ae="" xmlns="http://www.w3.org/2000/svg" viewBox="0 0 310.1930398716848 163" class="iconAbove"><!----><!----><!----><g data-v-423bf9ae="" id="529f09a3-b0e2-458c-a272-8f188078176b" fill="#1F1E1A" transform="matrix(5.791505336761475,0,0,5.791505336761475,-2.7799248695373535,82.09266662597656)"><path d="M0.48 7.76L0.48 10.00C0.48 12.60 2.13 13.97 4.54 13.97C7.13 13.97 8.40 12.59 8.40 10.42L8.40 10.08L6.55 10.08L6.55 10.42C6.55 11.52 6.01 12.29 4.54 12.29C3.09 12.29 2.32 11.40 2.32 10.05L2.32 7.70C2.32 6.47 3.15 5.46 4.54 5.46C5.88 5.46 6.55 6.22 6.55 7.34L6.55 7.67L8.40 7.67L8.40 7.34C8.40 5.15 7.01 3.78 4.54 3.78C2.06 3.78 0.48 5.32 0.48 7.76ZM9.69 3.98L9.69 13.78L11.45 13.78L11.45 10.19C11.45 8.96 12.05 8.26 13.19 8.26C14.20 8.26 14.76 8.83 14.76 9.80L14.76 13.78L16.52 13.78L16.52 9.63C16.52 7.83 15.36 6.72 13.82 6.72C12.54 6.72 11.90 7.31 11.62 7.95L11.45 7.95L11.45 3.98ZM17.78 8.43L19.21 9.35C19.64 8.62 20.22 8.15 21.14 8.15C22.09 8.15 22.60 8.67 22.60 9.32L22.60 9.49L19.81 9.80C18.52 9.94 17.64 10.70 17.64 11.80C17.64 13.13 18.68 13.97 20.24 13.97C21.74 13.97 22.26 13.24 22.43 12.94L22.62 12.94L22.62 13.78L24.36 13.78L24.36 9.34C24.36 7.71 23.13 6.64 21.24 6.64C19.54 6.64 18.61 7.39 17.78 8.43ZM19.49 11.70C19.49 11.30 19.81 11.06 20.47 10.98L22.60 10.72L22.60 10.84C22.60 11.79 21.91 12.52 20.68 12.52C19.89 12.52 19.49 12.18 19.49 11.70ZM25.26 6.83L25.26 8.37L27.02 8.37L27.02 12.43C27.02 13.22 27.61 13.78 28.39 13.78L30.30 13.78L30.30 12.24L29.18 12.24C28.92 12.24 28.78 12.10 28.78 11.82L28.78 8.37L30.69 8.37L30.69 6.83L28.78 6.83L28.78 4.68L27.02 4.68L27.02 6.83ZM31.64 4.82C31.64 5.53 32.19 6.02 32.89 6.02C33.59 6.02 34.13 5.53 34.13 4.82C34.13 4.10 33.59 3.61 32.89 3.61C32.19 3.61 31.64 4.10 31.64 4.82ZM33.77 6.83L32.00 6.83L32.00 13.78L33.77 13.78ZM35.45 3.98L35.45 13.78L37.18 13.78L37.18 12.80L37.38 12.80C37.74 13.38 38.36 13.97 39.59 13.97C41.33 13.97 42.78 12.43 42.78 10.30C42.78 8.18 41.33 6.64 39.59 6.64C38.36 6.64 37.74 7.22 37.38 7.81L37.21 7.81L37.21 3.98ZM39.12 8.20C40.18 8.20 41.02 8.96 41.02 10.30C41.02 11.65 40.18 12.40 39.12 12.40C38.02 12.40 37.21 11.62 37.21 10.30C37.21 8.99 38.02 8.20 39.12 8.20ZM45.81 3.98L44.04 3.98L44.04 13.78L45.81 13.78ZM47.07 10.25C47.07 12.40 48.57 13.97 50.64 13.97C52.50 13.97 53.31 12.99 53.79 12.26L52.28 11.40C52.04 11.89 51.59 12.43 50.61 12.43C49.60 12.43 48.94 11.72 48.90 10.82L54.04 10.82L54.04 10.14C54.04 8.05 52.63 6.64 50.61 6.64C48.57 6.64 47.07 8.15 47.07 10.25ZM48.92 9.59C49.03 8.76 49.60 8.18 50.60 8.18C51.51 8.18 52.12 8.74 52.22 9.59Z"></path></g><defs data-v-423bf9ae=""><linearGradient data-v-423bf9ae="" gradientTransform="rotate(25)" id="3b469878-e751-4bfe-8510-dc614601ec0f" x1="0%" y1="0%" x2="100%" y2="0%"><stop data-v-423bf9ae="" offset="0%" style="stop-color: rgb(9, 120, 166); stop-opacity: 1;"></stop><stop data-v-423bf9ae="" offset="100%" style="stop-color: rgb(251, 148, 71); stop-opacity: 1;"></stop></linearGradient></defs><g data-v-423bf9ae="" id="6e38992d-4a68-4f61-99f6-a2bffabc43d1" transform="matrix(1.3957817554473877,0,0,1.3957817554473877,85.27313995361328,-24.029085159301758)" stroke="none" fill="url(#3b469878-e751-4bfe-8510-dc614601ec0f)"><path d="M88.844 52.861c-.732-14.075-12.447-25.1-26.572-25.1-1.202 0-2.44.088-3.627.249-4.852-6.231-12.437-10.25-20.927-10.25-14.125 0-25.772 11.025-26.504 25.1l-.008 29.38 8.617-8.434c4.861 4.438 11.267 6.949 17.876 6.949a26.52 26.52 0 0 0 3.575-.248c5.008 6.437 12.732 10.249 20.921 10.249 6.609 0 13.171-2.511 18.031-6.949L89 82.24V52.965l-.156-.104zm-67.558 6.774l-1.498-1.491L15 62.729V43.017C16 31.093 25.62 21.76 37.598 21.76c12.405 0 22.547 10.092 22.547 22.498 0 12.405-10.067 22.497-22.471 22.497-6.281-.001-12.085-2.529-16.388-7.12zM61.583 56h12.895c-.742 6-5.968 10.736-12.282 10.736-2.619 0-5.101-.747-7.184-2.241C57.746 62.13 59.997 59 61.583 56zM85 72.73l-4.84-4.585-1.474 1.49c-4.304 4.592-10.171 7.12-16.452 7.12A22.579 22.579 0 0 1 45.7 69.523a26.34 26.34 0 0 0 6.862-3.335c2.723 2.206 6.295 3.411 9.854 3.411C70.893 69.599 78 62.703 78 54.227V53H62.8c.444-1 .789-2.809 1.024-4.206.701 1.069 1.906 1.709 3.28 1.709 2.167 0 3.924-1.791 3.924-3.958s-1.757-3.941-3.924-3.941a3.89 3.89 0 0 0-2.916 1.312 26.343 26.343 0 0 0-3.116-12.124c.374-.018.903-.03 1.278-.03C74.327 31.763 84 41.094 85 53.018V72.73z"></path><path d="M51.572 41.641a1.5 1.5 0 0 0-1.5 1.5c0 6.823-5.55 12.373-12.373 12.373-6.823 0-12.373-5.55-12.373-12.373a1.5 1.5 0 1 0-3 0c0 8.477 6.896 15.373 15.373 15.373s15.373-6.896 15.373-15.373a1.5 1.5 0 0 0-1.5-1.5z"></path><circle cx="31.409" cy="35.425" r="3.924"></circle><path d="M38.772 39h7.971a1.5 1.5 0 1 0 0-3h-2.504l.851-.573c.712-.423.947-1.377.524-2.09-.423-.712-1.343-.965-2.056-.541l-5.553 3.286c-.581.345-.86 1.099-.681 1.751.18.652.772 1.167 1.448 1.167z"></path></g><!----></svg>